<svg version="1.1" id="圖層_1" xmlns="http://www.w3.org/2000/svg" x="0" y="0" viewBox="0 0 425.1 304.5" xml:space="preserve"><style>.st0{fill:#231916}</style><path class="st0" d="M243 5.1c-6.1-3.9-9-3-10.3-1.8 0 0-3.6 5.2-21.4 4.5v.1c-20.4.2-106.3.9-113.2 0-3-.4-7-1.7-9.5-2.6v-.1c-2.1-1.7-15.3-5.7-15.4.1-.3 15.6-1.7 186.7-1.7 186.7s-.7 18.1-5.9 27.8c-.3.6.2 1.2.8 1.1 3.7-.9 13-4.3 18.5-17.5 0 0 2.9-6.7 2.4-21.8-.3-9.5 1.1-128.3 1.5-165.2 21.6-.1 108.6-.7 140-.9v.1c.1 12 1.2 145 .6 170.1-.5 19-5.4 29.9-8.1 34.4-.5.7.3 1.6 1.1 1.2l9-4.1c15.6-7.6 14.6-25 14.5-25.8v-.1c0-2.7-.3-166.6.4-170.4.7-3.6 4.2-5.5 4.2-5.5 4.2-3.9-2.6-7.2-7.5-10.3zm106.9 189.6c.4-2.5.2-4.5.2-4.5s-.2-161.1.1-163.8c.3-2.6-.9-8 4.3-10.9 5.2-2.9.8-5.9.8-5.9s-8.4-5-15.6-7-5.9 9.2-5.9 9.2v12.1s.3 140.4.1 168.5c0 .3-.1.7-.1 1.1 0 0-1.2 18.4-6.6 27.2-.4.7.3 1.5 1 1.2 6.2-2.7 21-10.7 21.7-27.2zM301.5 15.5c5.2-2.9.8-5.9.8-5.9s-8.4-5-15.6-7-5.9 9.2-5.9 9.2v12.1s.2 138.7 0 168c-.1.5-.1 1-.1 1.6 0 0-1.2 18.4-6.6 27.2-.4.7.3 1.5 1 1.2 6.1-2.6 20.7-10.5 21.6-26.6.6-2.7.4-5.1.4-5.1s-.2-161.1.1-163.8c.3-2.6-.9-8 4.3-10.9z"/><path class="st0" d="M155.8 47.4c1-1 2.1-2.3 3.3-3.9 19.3 30.4 62.4 58.1 62.3 53-.2-7-.3-14.2-.3-14.2-28.2-16.2-49.4-39.8-56.1-47.8.4-.7.7-1.3 1.1-1.9 2.7-5.1 1.4-6-1.9-6.6-2.8-.5-9.6-1.6-11.9-2-.4-.1-.9.2-1 .6-6.9 19.6-48.9 60.4-59.1 69.5-.6.6-.1 1.7.8 1.5 27.8-6.6 59.5-44.9 62.8-48.2zm32.2 84c-4.1 12.6-19.4 35.4-19.4 35.4 10.9-3.6 25.5-22.3 28.4-24.2 3.9-2.8 1.7-7.1 1.7-7.1s-7.6-13.6-10.7-4.1zm-51.1 23.3c-3.5-12.4-24.1-23.2-24.1-23.2s11.8 20.4 13 26.3c1.5 8.5 14.7 9.6 11.1-3.1z"/><path class="st0" d="M214.5 181.9c12.4.1 4.4-10.5 4.4-10.5-2.7-3.6-8.2-8.5-10.9-4.3-2.6 4-6.8 4-6.8 4h-39.6V124c19.7-.1 38.7-.2 42.3-.5 8.1-.8 3.8-7.7 3.8-7.7-3.9-6.8-9.6-10.8-12.3-5.6-2 3.7-6.3 3.8-6.3 3.8h-27.5V93.9c10.8 0 20.7 0 23.5-.3 7.9-.9 1.7-9 1.7-9-5.7-8.4-10.2-8-12-4.9-1.9 3.2-5.4 3-5.4 3h-43.1c-2.6.4-.4 6.4.9 9.3.5 1.1 1.3 1.7 2.3 1.7 3 0 10.4.1 18.8.1V114h-36c-3.6 0-1.2 5.8.2 8.6.4.8 1.2 1.4 2.1 1.4 4.3 0 18.1.1 33.7.1v47h-48.1c-4.6 0-1.6 6.5.1 9.4.4.9 1.2 1.4 2.1 1.4h27.5s75-.1 84.6 0zM25 277.5c-1.5-1-3.2-1.7-5.2-2.2s-4-.7-6.1-.7c-1.1 0-2.1.1-3.2.2s-2.1.2-3.1.2H1.8l-.1 1H4c.5 0 .9.2 1.2.4.3.2.4.5.5.8s.1.8.1 1.3v19.6c0 .7 0 1.3-.1 1.8 0 .5-.2.8-.5 1.1s-.7.5-1.2.6c-.5.2-1.2.2-2 .3l.1 1H7c1 0 2.1.1 3.2.2s2.2.2 3.2.2c2.2 0 4.4-.3 6.4-1s3.8-1.7 5.3-3 2.7-3 3.6-4.9c.9-2 1.3-4.2 1.3-6.7 0-2.4-.5-4.4-1.4-6.1-.9-1.7-2.1-3.1-3.6-4.1zm0 16.7c-.6 1.6-1.5 3-2.6 4.1s-2.4 2-4 2.6-3.3.9-5.2.9c-1 0-1.8-.1-2.4-.3-.5-.2-.9-.4-1.2-.8-.2-.3-.4-.7-.4-1.2-.1-.5-.1-1-.1-1.6H9v-20.4c0-.2.1-.3.3-.5.2-.1.5-.3.9-.4s.9-.2 1.4-.3c.5-.1 1.1-.1 1.7-.1 1.8 0 3.4.2 5 .8 1.6.6 2.9 1.4 4 2.4s2 2.3 2.6 3.9c.7 1.5 1 3.3 1 5.4 0 2.1-.3 3.9-.9 5.5zm21.7-16.4c.1-.5.3-.8.6-1.1.2-.3.6-.5 1.1-.6s1.1-.2 1.9-.3l-.1-1H39.7l-.1 1.1c.8 0 1.4.1 1.9.2s.8.3 1.1.5.4.5.5.8.1.7.1 1.2v19.7c0 .7 0 1.3-.1 1.8s-.2.8-.5 1.1c-.3.3-.6.5-1.1.6-.4.1-1 .2-1.8.3l-.1 1h10.7V302c-.9 0-1.5-.1-2-.2s-.8-.3-1.1-.5-.4-.5-.5-.8-.1-.7-.1-1.2v-19.7c0-.7 0-1.3.1-1.8zm36.6 23.6c-.3-.2-.6-.6-.8-1.1-.2-.5-.5-1.1-.8-2l-6.6-19.1c-.2-.6-.5-1.3-.7-2.1-.3-.8-.5-1.7-.7-2.6l-1.8.2c-.2.5-.5 1-.7 1.4s-.5.9-.7 1.5l-8.1 19.8c-.4 1-.8 1.8-1.1 2.4s-.6 1.1-1 1.4-.8.6-1.3.7-1.1.2-1.9.3l.1 1h9.5l.1-1.1c-1.3-.1-2.1-.2-2.6-.4s-.7-.6-.7-1.1c0-.3.2-1 .6-2.1l2.3-5.8h9.8l1.9 6.4c.1.4.2.7.3 1 .1.2.1.5.1.7 0 .5-.2.8-.7 1-.4.2-1.2.3-2.3.4l.1 1h10.7l.1-1.1c-.8 0-1.4-.1-1.9-.2s-.9-.2-1.2-.5zM67.1 291l4.6-11.6h.1l3.8 11.6h-8.5zm58.6 10.6c-.3-.2-.5-.5-.6-.8s-.2-.7-.2-1.2l-.6-19.7c0-.7 0-1.3.1-1.8s.2-.8.5-1.1c.3-.3.7-.5 1.2-.6.6-.1 1.2-.2 2.1-.3l-.1-1h-7.2c-.3.8-.6 1.5-.9 2.3s-.7 1.5-1 2.3l-8.1 18.8h-.1l-8.3-18.5c-.4-.8-.7-1.7-1.1-2.5s-.7-1.7-1.1-2.5h-7.1l.1 1c.8.1 1.4.2 2 .3.6.2 1 .4 1.4.8.2.2.4.4.5.7.1.2.2.5.3.9 0 .4.1.8.1 1.3v1.8l-.6 15.1c0 1.2-.1 2.1-.2 2.8-.1.7-.3 1.2-.6 1.5-.3.4-.7.6-1.2.7s-1.2.2-2 .3l.1 1h9l.1-1.1c-.7 0-1.3-.1-1.8-.2s-.8-.2-1.1-.5c-.3-.3-.4-.7-.5-1.2-.1-.6-.1-1.3-.1-2.2l.5-16.6.1-.1c1.7 3.8 3.4 7.5 5.1 11.2s3.3 7.4 5 11.3l1.4-.2c1.7-4 3.3-8 5-11.9s3.4-7.8 5.1-11.8l.1.1.5 18.6c.1.8 0 1.3 0 1.8s-.2.8-.4 1.1c-.3.3-.6.5-1 .6s-1 .2-1.7.3l.1 1h10.4l.1-1.1c-.9 0-1.6-.1-2.1-.2s-.9-.3-1.2-.5zm36.8-23.3c-1.3-1.3-2.8-2.2-4.6-2.9s-3.8-1-5.9-1c-2.2 0-4.2.3-5.9 1.1-1.8.7-3.3 1.8-4.6 3.1-1.3 1.3-2.3 2.9-3 4.7s-1.1 3.8-1.1 6 .4 4.1 1.1 5.9c.7 1.7 1.7 3.3 3 4.5 1.3 1.3 2.8 2.2 4.6 2.9s3.8 1 5.9 1 4.1-.4 5.9-1.1c1.8-.7 3.3-1.8 4.6-3.1s2.3-2.9 3-4.7 1.1-3.8 1.1-6-.4-4.1-1.1-5.9c-.7-1.7-1.7-3.2-3-4.5zm-.8 17.2c-.6 1.6-1.4 2.8-2.3 3.8-1 1-2 1.6-3.3 2.1s-2.6.7-3.9.7-2.5-.2-3.8-.7c-1.2-.4-2.4-1.2-3.4-2.3s-1.9-2.5-2.5-4.3c-.7-1.8-1-4-1-6.6 0-2.3.2-4.1.8-5.7s1.4-2.8 2.3-3.8c1-1 2-1.6 3.3-2.1s2.6-.7 3.9-.7c1.2 0 2.5.3 3.8.7 1.2.4 2.4 1.2 3.4 2.3s1.9 2.5 2.5 4.3c.7 1.8 1 4 1 6.6 0 2.3-.2 4.1-.8 5.7zm41.7-20.7h-7.3l-.1 1.1c.8 0 1.5.1 2 .2s.9.2 1.2.5.5.7.6 1.2c.1.6.2 1.3.2 2.2v17l-.1.1-18.8-22.1h-6l-.1 1.1c.6 0 1.1 0 1.4.1l.9.3c.3.1.5.3.7.4s.4.3.6.6c.2.3.4.5.5.7s.3.5.3.8.1.7.1 1.2v16.7c0 1.2-.1 2.1-.2 2.8-.1.7-.3 1.2-.6 1.5-.3.4-.7.6-1.2.7s-1.1.2-1.9.3l.1 1h9.4l.1-1.1c-.8 0-1.4-.1-1.9-.2s-.9-.2-1.2-.5-.5-.7-.6-1.2c-.1-.6-.2-1.3-.2-2.2v-17.1l.1-.1 15.7 18.6c.6.6 1.1 1.3 1.6 2l1.5 2.1 1.4-.4v-22c0-1.2.1-2.1.2-2.8.1-.7.3-1.2.6-1.5.3-.4.7-.6 1.2-.7s1.1-.2 1.9-.3v-1h-2.1zm33.9 2.7c-1.5-1-3.2-1.7-5.2-2.2s-4-.7-6.1-.7c-1.1 0-2.1.1-3.2.2s-2.1.2-3.1.2h-5.6l.1.8c.9 0 1.6.2 2.1.2s.9.2 1.2.4c.3.2.4.5.5.8s.1.8.1 1.3v19.6c0 .7 0 1.3-.1 1.8 0 .5-.2.8-.5 1.1s-.7.4-1.2.6-1.2.2-2 .3l.1 1h4.9c1 0 2.1.1 3.2.2s2.2.2 3.2.2c2.2 0 4.4-.3 6.4-1s3.8-1.7 5.3-3 2.7-2.9 3.6-4.9c.9-2 1.3-4.2 1.3-6.7 0-2.4-.5-4.4-1.4-6.1s-2.1-3.1-3.6-4.1zm0 16.7c-.6 1.6-1.5 3-2.6 4.1s-2.4 2-4 2.6-3.3.9-5.2.9c-1 0-1.8-.1-2.4-.3-.5-.2-1-.5-1.2-.8s-.4-.7-.4-1.2c-.1-.5-.1-1-.1-1.6h-.1v-20.4c0-.2.1-.3.3-.5.2-.1.5-.3.9-.4s.9-.2 1.4-.3c.5-.1 1.1-.1 1.7-.1 1.8 0 3.4.2 5 .8 1.6.6 2.9 1.4 4 2.4s1.9 2.4 2.6 3.9c.7 1.5 1 3.3 1 5.4 0 2.1-.3 3.9-.9 5.5zm50.2-4.7c-.7-.6-1.6-1.2-2.5-1.7-.9-.4-1.9-.9-2.8-1.3-.8-.3-1.5-.7-2.2-1s-1.3-.7-1.8-1.2-.9-1.1-1.2-1.7c-.3-.7-.5-1.5-.5-2.4 0-.7.2-1.3.4-1.9.2-.6.6-1.1 1-1.5s.9-.7 1.5-.9c.6-.2 1.2-.3 1.9-.3 1.9 0 3.3.5 4.4 1.5s1.7 2.5 1.9 4.6l1.2-.1v-3.3c0-.5.1-1.1.1-1.6s0-1.1.1-1.7c-1.2-.3-2.4-.5-3.4-.7s-2.2-.3-3.4-.3c-1.3 0-2.5.2-3.6.5-1.2.4-2.2.8-3 1.5s-1.5 1.5-2 2.4c-.5 1-.7 2.1-.7 3.3s.3 2.2.7 3c.4.8 1 1.5 1.7 2.2s1.5 1.2 2.4 1.7 1.8.9 2.7 1.3c.8.4 1.6.7 2.3 1.1.7.4 1.4.8 2 1.3s1 1.1 1.4 1.8c.3.7.5 1.5.5 2.5 0 .8-.1 1.5-.4 2.1-.2.7-.6 1.2-1.1 1.7s-1.1.8-1.7 1.1c-.6.3-1.3.4-2.1.4-1.2 0-2.2-.1-3-.5-.9-.4-1.6-.9-2.2-1.5s-1.2-1.3-1.6-2.2c-.4-.8-.8-1.8-1.2-2.8l-1.3-.1c.3 1.3.6 2.5.8 3.6.2 1.1.4 2.3.5 3.6 1.3.4 2.6.7 3.7.9 1.1.2 2.2.3 3.3.3 1.2 0 2.4-.2 3.6-.6 1.2-.3 2.2-.9 3.1-1.6s1.7-1.6 2.2-2.6.8-2.2.8-3.5c0-1.2-.3-2.2-.7-3.1-.4-.9-1-1.6-1.8-2.3zm35.6-14.7h-5.5l-.1 1.1c.9.1 1.7.2 2.3.3.6.1 1.1.3 1.4.6.3.3.6.7.7 1.2s.2 1.2.2 2.1v12.3c0 1.6-.3 3-.7 4.1-.5 1.2-1.1 2.1-1.8 2.8-.7.8-1.6 1.3-2.5 1.6-.9.3-1.9.5-3 .5-1 0-2-.2-3-.5s-1.8-.8-2.6-1.4c-.8-.7-1.4-1.5-1.9-2.5s-.7-2.2-.7-3.6h.1v-13.6c0-.7.1-1.3.2-1.8s.3-1 .6-1.2c.3-.2.7-.5 1.2-.6.6-.1 1.3-.2 2.1-.3l-.1-1h-11.4l-.1 1.1c.9 0 1.6.1 2.1.2s.9.3 1.2.5.5.5.6.8.1.7.1 1.2v15.6c0 1.6.2 2.9.8 4.1.6 1.2 1.3 2.1 2.3 2.9s2.1 1.3 3.3 1.7c1.3.4 2.6.6 3.9.6s2.7-.3 4-.6 2.5-.9 3.5-1.8 1.9-2 2.5-3.3c.7-1.4 1-3 1-4.9v-12.4c0-1.1.1-1.9.2-2.5.2-.6.4-1.1.7-1.4s.8-.5 1.3-.6 1.2-.2 2.1-.3v-1h-5zm29.2.2h-5.6c-.7 0-1.4 0-2.5.1h-9.6c.1 1.1.2 2 .2 2.8v4.3l1.1.1c.2-1.1.4-2 .6-2.7s.5-1.3.9-1.8.9-.8 1.6-1 1.6-.3 2.7-.3h3.3v21.9c0 .7 0 1.3-.1 1.8 0 .5-.2.8-.5 1.1-.2.3-.6.4-1.2.6s-1.3.2-2.2.3l.1 1h11.5l.1-1.1c-1 0-1.7-.1-2.3-.2-.5-.1-1-.3-1.2-.5s-.4-.5-.5-.8-.1-.7-.1-1.2v-23h3.3c1.1 0 1.9.1 2.6.3s1.2.5 1.6 1 .7 1.1.9 1.8c.2.8.4 1.6.6 2.7l1.1-.1v-1.8c.1-.6.1-1.1.1-1.7s.1-1.1.1-1.7c.1-.6.1-1.2.2-1.9h-6.8zm37.8 26.2c-.3-.2-.6-.4-.9-.7-.3-.3-.6-.7-1-1.2-.2-.4-.6-.9-1-1.6s-.9-1.5-1.4-2.4-1.1-1.9-1.7-3-1.2-2.2-1.8-3.4c.8-.3 1.6-.7 2.3-1.2.7-.5 1.3-1 1.8-1.7s.9-1.4 1.2-2.2.4-1.6.4-2.5c0-1.3-.3-2.4-.9-3.3s-1.4-1.6-2.3-2.1c-1-.6-2-.9-3.2-1.1s-2.3-.3-3.5-.3c-.8 0-1.6.1-2.4.2s-1.6.2-2.4.2h-5.5l-.1 1.1c.9 0 1.5.1 2 .2s.8.3 1.1.5c.3.2.4.5.5.8s.1.7.1 1.2v19.7c0 .7 0 1.3-.1 1.8s-.2.8-.5 1.1c-.3.3-.6.5-1.1.6-.4.1-1 .2-1.8.3l.1 1h10.5v-1.1c-.9 0-1.6-.1-2.1-.2s-.9-.3-1.1-.5-.3-.5-.4-.8-.1-.7-.1-1.2v-9.5h2.3c.5 0 .8.1 1.1.1.3 0 .5.1.7.2s.3.2.4.4c.1.1.2.3.3.5.7 1.3 1.4 2.6 2.1 3.8.7 1.2 1.3 2.4 1.9 3.4.6 1.1 1.1 2 1.5 2.8l.9 1.8h6.8l.1-1.1c-.7-.1-1.3-.1-1.7-.2-.4-.1-.8-.2-1.1-.4zm-13.4-12.6h-1.9v-9.9c0-.4.1-.8.1-1.1s.1-.6.3-.8c.1-.2.4-.4.7-.5.3-.1.8-.2 1.4-.2 2 0 3.6.5 4.8 1.4 1.2 1 1.8 2.4 1.8 4.4 0 2.3-.7 4-1.9 5.1-1.2 1.1-3 1.6-5.3 1.6zm48.5 13.3c-.5-.1-.9-.3-1.2-.5s-.6-.6-.8-1.1c-.2-.5-.5-1.1-.8-2l-6.6-19.1c-.2-.6-.5-1.3-.7-2.1-.3-.8-.5-1.7-.7-2.6l-1.8.2c-.2.5-.5 1-.7 1.4s-.5.9-.7 1.5l-8.1 19.8c-.4 1-.8 1.8-1.1 2.4-.3.6-.6 1.1-1 1.4s-.8.6-1.3.7-1.1.2-1.9.3l.1 1h9.5l.1-1.1c-1.3-.1-2.1-.2-2.6-.4s-.7-.6-.7-1.1c0-.3.2-1 .6-2.1l2.3-5.8h9.8l1.9 6.4c.1.4.2.7.3 1 .1.2.1.5.1.7 0 .5-.2.8-.7 1-.4.2-1.2.3-2.3.4l.1 1H427l.1-1.1c-.8 0-1.4-.1-1.9-.2zM407.8 291l4.6-11.6h.1l3.8 11.6h-8.5z"/></svg>