<svg version="1.1" id="圖層_1" xmlns="http://www.w3.org/2000/svg" x="0" y="0" viewBox="0 0 71 166.8" xml:space="preserve"><style>.st0{fill:none;stroke:#fff;stroke-miterlimit:10}</style><g id="Group_85" transform="translate(-1269.062 -249.542)"><path id="Path_8" class="st0" d="M1334.2 297.3c-1.1-8.5-8.3-14.9-16.9-14.9h-24.8c-9.4 0-17.1 7.6-17.1 17.1l-4.4 48.3c-.3 3.4 2.2 6.4 5.6 6.7 3.5-.1 6.4-2.7 6.8-6.2l4.5-48.9h.7v109.7c-.1 3.2 2.3 6 5.6 6.4 3.4.3 6.4-2.1 6.8-5.5v-56c0-2.1 1.7-3.9 3.9-3.9 2.1 0 3.9 1.7 3.9 3.9v55.1c-.1 3.2 2.3 6 5.6 6.4 3.4.3 6.4-2.1 6.8-5.5V299.4h.9l4.5 49.3c.2 3.2 2.9 5.8 6.1 5.9 3.4 0 6.2-2.7 6.2-6.1v-.6l-4.7-50.6z"/><circle id="Ellipse_4" class="st0" cx="1304.5" cy="263.9" r="13.3"/></g></svg>